{
  "accessors": [
    {
      "bufferView": 3,
      "componentType": 5126,
      "count": 1926,
      "max": [
        0.6053422689437866,
        1.2520415782928467,
        0.37645599246025085
      ],
      "min": [
        -0.6054286956787109,
        0.0011989325284957886,
        -0.31784358620643616
      ],
      "type": "VEC3"
    },
    {
      "bufferView": 3,
      "byteOffset": 23112,
      "componentType": 5126,
      "count": 1926,
      "max": [
        0.9976595044136047,
        0.9964714050292969,
        0.999984085559845
      ],
      "min": [
        -0.997675895690918,
        -0.9939123392105103,
        -0.9994372725486755
      ],
      "type": "VEC3"
    },
    {
      "bufferView": 4,
      "componentType": 5126,
      "count": 1926,
      "max": [
        0.9999976754188538,
        0.9995304942131042,
        0.9899486303329468,
        1.0
      ],
      "min": [
        -0.9999976754188538,
        -0.9974170327186584,
        -0.9984698295593262,
        -1.0
      ],
      "type": "VEC4"
    },
    {
      "bufferView": 2,
      "componentType": 5126,
      "count": 1926,
      "max": [
        0.9947072863578796,
        0.9953038692474365
      ],
      "min": [
        0.005817525088787079,
        0.008171133697032928
      ],
      "type": "VEC2"
    },
    {
      "bufferView": 1,
      "componentType": 5125,
      "count": 9372,
      "type": "SCALAR"
    },
    {
      "bufferView": 5,
      "componentType": 5126,
      "count": 42,
      "max": [
        1.0,
        1.000000238418579,
        0.8905748724937439,
        0.0,
        0.9999974966049194,
        1.0,
        0.8224141001701355,
        0.0,
        0.34906086325645447,
        0.9277020692825317,
        1.0,
        0.0,
        0.7430394887924194,
        0.11434529721736908,
        0.432935506105423,
        1.0
      ],
      "min": [
        -0.8641049265861511,
        -1.000000238418579,
        -0.8905748724937439,
        0.0,
        -0.9999974966049194,
        -0.6282503604888916,
        -0.2448330670595169,
        0.0,
        -0.34906086325645447,
        -0.8918444514274597,
        0.16886623203754425,
        0.0,
        -0.7430394887924194,
        -0.8541592955589294,
        -0.5265350341796875,
        1.0
      ],
      "type": "MAT4"
    },
    {
      "bufferView": 0,
      "componentType": 5123,
      "count": 1926,
      "type": "VEC4"
    },
    {
      "bufferView": 4,
      "byteOffset": 30816,
      "componentType": 5126,
      "count": 1926,
      "max": [
        1.0,
        0.49993592500686646,
        0.27080991864204407,
        0.13035744428634644
      ],
      "min": [
        0.352114200592041,
        0.0,
        0.0,
        0.0
      ],
      "type": "VEC4"
    }
  ],
  "asset": {
    "extras": {
      "author": "LuisMoraHe (https://sketchfab.com/LuisMoraHe)",
      "license": "CC-BY-4.0 (http://creativecommons.org/licenses/by/4.0/)",
      "source": "https://sketchfab.com/3d-models/hamster-remake-c9433cb2268f497491a3dfb5bab1870e",
      "title": "Hamster Remake"
    },
    "generator": "Sketchfab-12.67.0",
    "version": "2.0"
  },
  "bufferViews": [
    {
      "buffer": 0,
      "byteLength": 15408,
      "byteStride": 8,
      "name": "shortBufferViews",
      "target": 34962
    },
    {
      "buffer": 0,
      "byteLength": 37488,
      "byteOffset": 15408,
      "name": "floatBufferViews",
      "target": 34963
    },
    {
      "buffer": 0,
      "byteLength": 15408,
      "byteOffset": 52896,
      "byteStride": 8,
      "name": "floatBufferViews",
      "target": 34962
    },
    {
      "buffer": 0,
      "byteLength": 46224,
      "byteOffset": 68304,
      "byteStride": 12,
      "name": "floatBufferViews",
      "target": 34962
    },
    {
      "buffer": 0,
      "byteLength": 61632,
      "byteOffset": 114528,
      "byteStride": 16,
      "name": "floatBufferViews",
      "target": 34962
    },
    {
      "buffer": 0,
      "byteLength": 2688,
      "byteOffset": 176160,
      "name": "floatBufferViews"
    }
  ],
  "buffers": [
    {
      "byteLength": 178848,
      "uri": "scene.bin"
    }
  ],
  "images": [
    {
      "uri": "textures/Hamster_baseColor.png"
    },
    {
      "uri": "textures/Hamster_metallicRoughness.png"
    },
    {
      "uri": "textures/Hamster_normal.png"
    }
  ],
  "materials": [
    {
      "doubleSided": true,
      "name": "Hamster",
      "normalTexture": {
        "index": 2
      },
      "occlusionTexture": {
        "index": 1
      },
      "pbrMetallicRoughness": {
        "baseColorTexture": {
          "index": 0
        },
        "metallicFactor": 0.0,
        "metallicRoughnessTexture": {
          "index": 1
        }
      }
    }
  ],
  "meshes": [
    {
      "name": "Object_0",
      "primitives": [
        {
          "attributes": {
            "JOINTS_0": 6,
            "NORMAL": 1,
            "POSITION": 0,
            "TANGENT": 2,
            "TEXCOORD_0": 3,
            "WEIGHTS_0": 7
          },
          "indices": 4,
          "material": 0,
          "mode": 4
        }
      ]
    }
  ],
  "nodes": [
    {
      "children": [
        1
      ],
      "matrix": [
        1.0,
        0.0,
        0.0,
        0.0,
        0.0,
        2.220446049250313e-16,
        -1.0,
        0.0,
        0.0,
        1.0,
        2.220446049250313e-16,
        0.0,
        0.0,
        0.0,
        0.0,
        1.0
      ],
      "name": "Sketchfab_model"
    },
    {
      "children": [
        2
      ],
      "name": "root"
    },
    {
      "children": [
        3
      ],
      "matrix": [
        1.0,
        0.0,
        0.0,
        0.0,
        0.0,
        2.220446049250313e-16,
        1.0,
        0.0,
        0.0,
        -1.0,
        2.220446049250313e-16,
        0.0,
        0.0,
        0.0,
        0.0,
        1.0
      ],
      "name": "GLTF_SceneRootNode"
    },
    {
      "children": [
        4
      ],
      "matrix": [
        1.0,
        0.0,
        0.0,
        0.0,
        0.0,
        1.0,
        0.0,
        0.0,
        0.0,
        0.0,
        1.0,
        0.0,
        0.0,
        0.1498105525970459,
        0.0,
        1.0
      ],
      "name": "Armature_42"
    },
    {
      "children": [
        5,
        7,
        6
      ],
      "name": "GLTF_created_0"
    },
    {
      "children": [
        8,
        13,
        15,
        29,
        31,
        33,
        47
      ],
      "name": "GLTF_created_0_rootJoint"
    },
    {
      "name": "Hamster_41"
    },
    {
      "mesh": 0,
      "name": "Object_7",
      "skin": 0
    },
    {
      "children": [
        9
      ],
      "name": "Caderas_4",
      "rotation": [
        0.027793103829026222,
        1.048068938095718e-17,
        1.048068938095718e-17,
        0.9996137022972107
      ],
      "translation": [
        5.408124629254865e-18,
        0.02435602992773056,
        -0.039855316281318665
      ]
    },
    {
      "children": [
        10
      ],
      "name": "Torso_bajo_3",
      "rotation": [
        0.2061018943786621,
        0.19550636410713196,
        0.08975062519311905,
        0.9545910954475403
      ],
      "scale": [
        1.0,
        1.0000001192092896,
        1.0
      ],
      "translation": [
        -1.0339757656912846e-25,
        0.24453496932983398,
        1.862645149230957e-09
      ]
    },
    {
      "children": [
        11
      ],
      "name": "Torso_alto_2",
      "rotation": [
        0.0005721210036426783,
        -0.10816904902458191,
        -0.16199612617492676,
        0.9808447360992432
      ],
      "scale": [
        0.9999998211860657,
        0.9999997615814209,
        0.9999999403953552
      ],
      "translation": [
        1.4901162970204496e-08,
        0.22242772579193115,
        4.7986388196363805e-09
      ]
    },
    {
      "children": [
        12
      ],
      "name": "Cuello_1",
      "rotation": [
        -0.22090467810630798,
        0.04416802525520325,
        -0.07231439650058746,
        0.9716074466705322
      ],
      "scale": [
        1.0,
        1.0000001192092896,
        1.0000001192092896
      ],
      "translation": [
        -4.50632538569502e-22,
        0.1637112945318222,
        -7.3756067919816815e-09
      ]
    },
    {
      "name": "Cabeza_0",
      "rotation": [
        0.24267388880252838,
        0.02135917730629444,
        0.03174298629164696,
        0.969353199005127
      ],
      "scale": [
        0.9999999403953552,
        0.9999999403953552,
        1.000000238418579
      ],
      "translation": [
        -1.4901161193847656e-08,
        0.06177793815732002,
        9.01981334067159e-09
      ]
    },
    {
      "children": [
        14
      ],
      "name": "L.pierna_6",
      "rotation": [
        0.17064420878887177,
        -0.3834666609764099,
        -0.8860055208206177,
        0.197048619389534
      ],
      "scale": [
        0.9999999403953552,
        1.0000001192092896,
        0.9999999403953552
      ],
      "translation": [
        0.11466985940933228,
        0.02497103624045849,
        -0.039599306881427765
      ]
    },
    {
      "name": "L.pie_5",
      "rotation": [
        0.20318543910980225,
        0.008957757614552975,
        0.2298024296760559,
        0.9517490863800049
      ],
      "scale": [
        1.0,
        1.000000238418579,
        1.0
      ],
      "translation": [
        9.051513316649107e-09,
        0.23303407430648804,
        5.577996287087217e-09
      ]
    },
    {
      "children": [
        16
      ],
      "name": "L.brazo_20",
      "rotation": [
        0.0759299248456955,
        -0.40584737062454224,
        -0.8699437975883484,
        0.2696670591831207
      ],
      "scale": [
        0.9999998211860657,
        0.9999999403953552,
        1.0
      ],
      "translation": [
        0.2629687190055847,
        0.49719828367233276,
        0.05741889774799347
      ]
    },
    {
      "children": [
        17,
        20,
        23,
        26
      ],
      "name": "L.palma_19",
      "rotation": [
        -0.020732400938868523,
        0.21468402445316315,
        -0.20632293820381165,
        0.9544169902801514
      ],
      "scale": [
        1.000000238418579,
        1.0,
        1.0000001192092896
      ],
      "translation": [
        4.481196747008198e-09,
        0.19118504226207733,
        2.1900238067473765e-08
      ]
    },
    {
      "children": [
        18
      ],
      "name": "L.medio1_9",
      "rotation": [
        0.2470342516899109,
        0.0034222190733999014,
        0.016291523352265358,
        0.9688637852668762
      ],
      "scale": [
        0.9999999403953552,
        1.0000001192092896,
        1.0
      ],
      "translation": [
        1.5194125069228903e-08,
        0.05234716087579727,
        -4.133753783719385e-09
      ]
    },
    {
      "children": [
        19
      ],
      "name": "L.medio2_8",
      "rotation": [
        0.20088696479797363,
        -0.04570683464407921,
        -0.5497304201126099,
        0.8095380067825317
      ],
      "scale": [
        1.0000001192092896,
        1.000000238418579,
        1.0
      ],
      "translation": [
        -4.750501148009789e-08,
        0.029139867052435875,
        4.2519143761410305e-09
      ]
    },
    {
      "name": "L.medio3_7",
      "rotation": [
        0.13905079662799835,
        -0.12889064848423004,
        -0.26962485909461975,
        0.9441157579421997
      ],
      "scale": [
        1.0,
        0.9999999403953552,
        0.9999999403953552
      ],
      "translation": [
        -2.905506057970797e-09,
        0.026814406737685204,
        -2.4709954971058323e-08
      ]
    },
    {
      "children": [
        21
      ],
      "name": "L.indice1_12",
      "rotation": [
        0.5422776937484741,
        -0.02530304715037346,
        -0.0015701331431046128,
        0.8398168087005615
      ],
      "scale": [
        1.0,
        1.0,
        1.0000001192092896
      ],
      "translation": [
        -4.480968485154335e-08,
        0.05234714597463608,
        1.090735501918516e-09
      ]
    },
    {
      "children": [
        22
      ],
      "name": "L.indice2_11",
      "rotation": [
        -0.050291795283555984,
        -0.23778481781482697,
        -0.5651033520698547,
        0.788408100605011
      ],
      "scale": [
        1.000000238418579,
        1.0000001192092896,
        1.0
      ],
      "translation": [
        -1.0253513238467349e-07,
        0.04574970155954361,
        1.7730835466522876e-08
      ]
    },
    {
      "name": "L.indice3_10",
      "rotation": [
        0.01327329222112894,
        0.014088453724980354,
        -0.1752912700176239,
        0.9843263626098633
      ],
      "scale": [
        1.0000001192092896,
        1.000000238418579,
        1.0
      ],
      "translation": [
        -1.0032406905224889e-08,
        0.024774916470050812,
        2.6662263508114847e-08
      ]
    },
    {
      "children": [
        24
      ],
      "name": "L.anular1_15",
      "rotation": [
        -0.1635356843471527,
        1.1265884580780039e-07,
        -0.03788001462817192,
        0.9858099222183228
      ],
      "scale": [
        1.0,
        1.0,
        1.0000001192092896
      ],
      "translation": [
        1.3785067309868282e-08,
        0.05234713852405548,
        -1.3482923222341014e-08
      ]
    },
    {
      "children": [
        25
      ],
      "name": "L.anular2_14",
      "rotation": [
        0.19246874749660492,
        -0.09773175418376923,
        -0.6788422465324402,
        0.7018386721611023
      ],
      "scale": [
        1.0,
        0.9999997019767761,
        1.0000001192092896
      ],
      "translation": [
        3.7228097937713756e-08,
        0.03439576178789139,
        -2.5084364807526072e-08
      ]
    },
    {
      "name": "L.anular3_13",
      "rotation": [
        -0.04096761718392372,
        -0.12193328887224197,
        -0.2382146567106247,
        0.9626566171646118
      ],
      "scale": [
        1.0,
        0.9999998807907104,
        0.9999999403953552
      ],
      "translation": [
        -7.756143105552837e-08,
        0.02190939523279667,
        -2.606562432561077e-08
      ]
    },
    {
      "children": [
        27
      ],
      "name": "L.menique1_18",
      "rotation": [
        -0.4793241620063782,
        0.0009745977586135268,
        -0.020924773067235947,
        0.8773879408836365
      ],
      "scale": [
        0.9999998807907104,
        1.000000238418579,
        1.0000003576278687
      ],
      "translation": [
        1.4763391398275871e-08,
        0.052347149699926376,
        6.4309868541556625e-09
      ]
    },
    {
      "children": [
        28
      ],
      "name": "L.menique2_17",
      "rotation": [
        0.3482060730457306,
        0.1069350466132164,
        -0.677436113357544,
        0.6390600800514221
      ],
      "scale": [
        0.9999998807907104,
        0.9999998807907104,
        0.9999999403953552
      ],
      "translation": [
        2.0529094868493303e-08,
        0.047808706760406494,
        1.3723722602776434e-08
      ]
    },
    {
      "name": "L.menique3_16",
      "rotation": [
        -0.11491825431585312,
        -0.11306364834308624,
        -0.16518673300743103,
        0.9729973077774048
      ],
      "translation": [
        -4.025559885434404e-09,
        0.026150858029723167,
        -4.284578469793132e-09
      ]
    },
    {
      "children": [
        30
      ],
      "name": "L.pulgar1_22",
      "rotation": [
        -0.39893531799316406,
        0.31201717257499695,
        0.7401135563850403,
        0.4424113631248474
      ],
      "scale": [
        0.9999992251396179,
        1.0,
        1.0000001192092896
      ],
      "translation": [
        0.31028854846954346,
        0.396949827671051,
        0.24718143045902252
      ]
    },
    {
      "name": "L.pulgar2_21",
      "rotation": [
        -0.44304516911506653,
        0.08538974076509476,
        -0.29043617844581604,
        0.8438403010368347
      ],
      "scale": [
        1.0000001192092896,
        1.0,
        0.9999998807907104
      ],
      "translation": [
        3.2206022293479464e-09,
        0.025797883048653603,
        -4.697688638088948e-08
      ]
    },
    {
      "children": [
        32
      ],
      "name": "R.pierna_24",
      "rotation": [
        0.17064420878887177,
        0.3834666609764099,
        0.8860055208206177,
        0.197048619389534
      ],
      "scale": [
        0.9999999403953552,
        1.0000001192092896,
        0.9999999403953552
      ],
      "translation": [
        -0.11466985940933228,
        0.02497103624045849,
        -0.039599306881427765
      ]
    },
    {
      "name": "R.pie_23",
      "rotation": [
        0.20318543910980225,
        -0.008957757614552975,
        -0.2298024296760559,
        0.9517490863800049
      ],
      "scale": [
        1.0,
        1.000000238418579,
        1.0
      ],
      "translation": [
        -9.051513316649107e-09,
        0.23303407430648804,
        5.577996287087217e-09
      ]
    },
    {
      "children": [
        34
      ],
      "name": "R.brazo_38",
      "rotation": [
        0.4389572739601135,
        0.678607165813446,
        0.21405677497386932,
        0.5486242175102234
      ],
      "translation": [
        -0.25733548402786255,
        0.5592287182807922,
        0.2078559845685959
      ]
    },
    {
      "children": [
        35,
        38,
        41,
        44
      ],
      "name": "R.palma_37",
      "rotation": [
        0.08255181461572647,
        0.10880810022354126,
        -0.37257158756256104,
        0.9178978204727173
      ],
      "translation": [
        1.0902916613986235e-07,
        0.19118495285511017,
        1.1552816481241734e-09
      ]
    },
    {
      "children": [
        36
      ],
      "name": "R.medio1_27",
      "rotation": [
        0.2470342367887497,
        -0.003422218607738614,
        -0.016291534528136253,
        0.9688637852668762
      ],
      "scale": [
        1.0,
        1.0000004768371582,
        1.0
      ],
      "translation": [
        -1.1743225281080072e-09,
        0.052347131073474884,
        5.6498215883493685e-08
      ]
    },
    {
      "children": [
        37
      ],
      "name": "R.medio2_26",
      "rotation": [
        -0.3342476785182953,
        0.0809042677283287,
        0.0271595548838377,
        0.9386135339736938
      ],
      "scale": [
        1.0000001192092896,
        1.0000001192092896,
        1.0
      ],
      "translation": [
        -3.157687444854673e-08,
        0.029139842838048935,
        1.4194771580378074e-08
      ]
    },
    {
      "name": "R.medio3_25",
      "rotation": [
        -0.0024186396040022373,
        -1.1007210076741103e-07,
        -0.011644151993095875,
        0.9999293088912964
      ],
      "translation": [
        -3.295014039395028e-08,
        0.02681446634232998,
        -3.990135155618191e-08
      ]
    },
    {
      "children": [
        39
      ],
      "name": "R.indice1_30",
      "rotation": [
        0.5422776341438293,
        0.02530302293598652,
        0.0015701369848102331,
        0.8398168087005615
      ],
      "scale": [
        1.000000238418579,
        1.000000238418579,
        1.000000238418579
      ],
      "translation": [
        1.6062436714037176e-08,
        0.05234715715050697,
        -1.0674458650328233e-08
      ]
    },
    {
      "children": [
        40
      ],
      "name": "R.indice2_29",
      "rotation": [
        -0.2840946614742279,
        -0.06255912780761719,
        0.12913745641708374,
        0.9479979276657104
      ],
      "scale": [
        1.0000001192092896,
        1.0,
        0.9999998807907104
      ],
      "translation": [
        -2.1865727006797897e-08,
        0.04574970901012421,
        1.9695894692972615e-08
      ]
    },
    {
      "name": "R.indice3_28",
      "rotation": [
        -0.06005068123340607,
        2.5426274419260153e-08,
        -0.012045051902532578,
        0.9981226325035095
      ],
      "scale": [
        0.9999999403953552,
        1.0,
        1.0
      ],
      "translation": [
        -4.667424224891192e-10,
        0.0247749425470829,
        -6.513868999746819e-09
      ]
    },
    {
      "children": [
        42
      ],
      "name": "R.anular1_33",
      "rotation": [
        -0.1635356843471527,
        -9.84879235943481e-08,
        0.03788002207875252,
        0.9858099222183228
      ],
      "scale": [
        1.0000001192092896,
        1.0,
        1.0000001192092896
      ],
      "translation": [
        -3.339595622264824e-08,
        0.052347149699926376,
        -2.3786542513448694e-08
      ]
    },
    {
      "children": [
        43
      ],
      "name": "R.anular2_32",
      "rotation": [
        0.12240532040596008,
        0.018724750727415085,
        0.5719909071922302,
        0.8108592629432678
      ],
      "scale": [
        1.0,
        1.0,
        0.9999999403953552
      ],
      "translation": [
        -4.086160743099754e-08,
        0.03439575061202049,
        -1.7702253884976926e-08
      ]
    },
    {
      "name": "R.anular3_31",
      "rotation": [
        -0.06286938488483429,
        0.13486826419830322,
        0.521756112575531,
        0.8400170207023621
      ],
      "scale": [
        1.0000001192092896,
        1.000000238418579,
        0.9999999403953552
      ],
      "translation": [
        7.7589916713805e-08,
        0.02190936543047428,
        -1.2341814681349206e-08
      ]
    },
    {
      "children": [
        45
      ],
      "name": "R.menique1_36",
      "rotation": [
        -0.4793241024017334,
        -0.0009745903080329299,
        0.0209247674793005,
        0.8773879408836365
      ],
      "scale": [
        0.9999998211860657,
        0.9999999403953552,
        1.0000001192092896
      ],
      "translation": [
        -4.6829374156232006e-08,
        0.05234716087579727,
        4.771981920725921e-09
      ]
    },
    {
      "children": [
        46
      ],
      "name": "R.menique2_35",
      "rotation": [
        0.40266749262809753,
        -0.11293409019708633,
        0.6012939214706421,
        0.6808453798294067
      ],
      "scale": [
        1.000000238418579,
        1.0000001192092896,
        1.0
      ],
      "translation": [
        4.0712578197599214e-08,
        0.047808688133955,
        -5.747142317602538e-09
      ]
    },
    {
      "name": "R.menique3_34",
      "rotation": [
        -0.18896646797657013,
        0.2550552189350128,
        0.47094953060150146,
        0.8230705261230469
      ],
      "scale": [
        0.9999999403953552,
        1.0,
        1.0
      ],
      "translation": [
        -1.0855962351286053e-08,
        0.02615082822740078,
        -6.42566178044035e-08
      ]
    },
    {
      "children": [
        48
      ],
      "name": "R.pulgar1_40",
      "rotation": [
        -0.6334137916564941,
        -0.7121062278747559,
        -0.2980722188949585,
        0.05333638936281204
      ],
      "scale": [
        0.9999994039535522,
        1.0,
        0.9999997615814209
      ],
      "translation": [
        -0.140659362077713,
        0.6752871870994568,
        0.330839067697525
      ]
    },
    {
      "name": "R.pulgar2_39",
      "rotation": [
        -0.4452283978462219,
        0.11944255232810974,
        -0.37982532382011414,
        0.8020211458206177
      ],
      "scale": [
        0.9999999403953552,
        1.0000001192092896,
        0.9999999403953552
      ],
      "translation": [
        1.1315711923032268e-08,
        0.02579786442220211,
        -2.492555273292396e-09
      ]
    }
  ],
  "samplers": [
    {
      "magFilter": 9729,
      "minFilter": 9987,
      "wrapS": 10497,
      "wrapT": 10497
    }
  ],
  "scene": 0,
  "scenes": [
    {
      "name": "Sketchfab_Scene",
      "nodes": [
        0
      ]
    }
  ],
  "skins": [
    {
      "inverseBindMatrices": 5,
      "joints": [
        5,
        8,
        9,
        10,
        11,
        12,
        13,
        14,
        15,
        16,
        17,
        18,
        19,
        20,
        21,
        22,
        23,
        24,
        25,
        26,
        27,
        28,
        29,
        30,
        31,
        32,
        33,
        34,
        35,
        36,
        37,
        38,
        39,
        40,
        41,
        42,
        43,
        44,
        45,
        46,
        47,
        48
      ],
      "skeleton": 5
    }
  ],
  "textures": [
    {
      "sampler": 0,
      "source": 0
    },
    {
      "sampler": 0,
      "source": 1
    },
    {
      "sampler": 0,
      "source": 2
    }
  ]
}
